# xmcd CD database file
#
# Track frame offsets:
#	150
#	17560
#	36553
#	56779
#	78185
#	97543
#	118640
#	133548
#	152043
#	170927
#
# Disc length: 2519 seconds
#
# Revision: 0
# Processed by: cddbd v1.5.2PL0 Copyright (c) Steve Scherf et al.
# Submitted via: CDex 1.60beta1
#
DISCID=7a09d50a
DTITLE=Ирина Богушевская - Лёгкие люди
DYEAR=2000
DGENRE=Jazz
TTITLE0=Городская чайка
TTITLE1=Ангел моей печали
TTITLE2=Эти большие волны
TTITLE3=Два лепестка
TTITLE4=Твидовый сезон
TTITLE5=Лёгкие люди
TTITLE6=Шоу для тебя одной
TTITLE7=Легче пёрышка
TTITLE8=Дожди Эдинбурга
TTITLE9=Лёгкие люди (ремикс)
EXTD=YEAR: 2000
EXTT0=
EXTT1=
EXTT2=
EXTT3=
EXTT4=
EXTT5=
EXTT6=
EXTT7=
EXTT8=
EXTT9=
PLAYORDER=
